<?xml version="1.0" encoding="UTF-8" standalone="no"?>
<!DOCTYPE svg PUBLIC "-//W3C//DTD SVG 1.1//EN"
 "http://www.w3.org/Graphics/SVG/1.1/DTD/svg11.dtd">
<!-- Generated by graphviz version 2.40.1 (20161225.0304)
 -->
<!-- Title: G Pages: 1 -->
<svg width="213pt" height="600pt"
 viewBox="0.00 0.00 213.00 600.00" xmlns="http://www.w3.org/2000/svg" xmlns:xlink="http://www.w3.org/1999/xlink">
<g id="graph0" class="graph" transform="scale(1 1) rotate(0) translate(4 596)">
<title>G</title>
<polygon fill="#ffffff" stroke="transparent" points="-4,4 -4,-596 209,-596 209,4 -4,4"/>
<g id="clust1" class="cluster">
<title>cluster_Global</title>
<path fill="none" stroke="#c0c0c0" d="M20,-8C20,-8 185,-8 185,-8 191,-8 197,-14 197,-20 197,-20 197,-572 197,-572 197,-578 191,-584 185,-584 185,-584 20,-584 20,-584 14,-584 8,-578 8,-572 8,-572 8,-20 8,-20 8,-14 14,-8 20,-8"/>
<text text-anchor="middle" x="102.5" y="-571.2" font-family="Times,serif" font-size="11.00" fill="#c0c0c0">Global</text>
</g>
<g id="clust2" class="cluster">
<title>cluster_\BASE</title>
<path fill="none" stroke="#c0c0c0" d="M28,-16C28,-16 177,-16 177,-16 183,-16 189,-22 189,-28 189,-28 189,-544 189,-544 189,-550 183,-556 177,-556 177,-556 28,-556 28,-556 22,-556 16,-550 16,-544 16,-544 16,-28 16,-28 16,-22 22,-16 28,-16"/>
<text text-anchor="middle" x="102.5" y="-543.2" font-family="Times,serif" font-size="11.00" fill="#c0c0c0">BASE</text>
</g>
<g id="clust3" class="cluster">
<title>cluster_\BASE\MVC</title>
<path fill="none" stroke="#c0c0c0" d="M36,-150C36,-150 169,-150 169,-150 175,-150 181,-156 181,-162 181,-162 181,-516 181,-516 181,-522 175,-528 169,-528 169,-528 36,-528 36,-528 30,-528 24,-522 24,-516 24,-516 24,-162 24,-162 24,-156 30,-150 36,-150"/>
<text text-anchor="middle" x="102.5" y="-515.2" font-family="Times,serif" font-size="11.00" fill="#c0c0c0">MVC</text>
</g>
<g id="clust4" class="cluster">
<title>cluster_\BASE\MVC\TemplateEngines</title>
<path fill="none" stroke="#c0c0c0" d="M44,-312C44,-312 161,-312 161,-312 167,-312 173,-318 173,-324 173,-324 173,-488 173,-488 173,-494 167,-500 161,-500 161,-500 44,-500 44,-500 38,-500 32,-494 32,-488 32,-488 32,-324 32,-324 32,-318 38,-312 44,-312"/>
<text text-anchor="middle" x="102.5" y="-487.2" font-family="Times,serif" font-size="11.00" fill="#c0c0c0">TemplateEngines</text>
</g>
<g id="clust5" class="cluster">
<title>cluster_\BASE\MVC\TemplateEngines\Smarty</title>
<path fill="none" stroke="#c0c0c0" d="M71.5,-364C71.5,-364 133.5,-364 133.5,-364 139.5,-364 145.5,-370 145.5,-376 145.5,-376 145.5,-460 145.5,-460 145.5,-466 139.5,-472 133.5,-472 133.5,-472 71.5,-472 71.5,-472 65.5,-472 59.5,-466 59.5,-460 59.5,-460 59.5,-376 59.5,-376 59.5,-370 65.5,-364 71.5,-364"/>
<text text-anchor="middle" x="102.5" y="-459.2" font-family="Times,serif" font-size="11.00" fill="#c0c0c0">Smarty</text>
</g>
<g id="clust6" class="cluster">
<title>cluster_\BASE\MVC\TemplateEngines\Smarty\Plugins</title>
<path fill="none" stroke="#c0c0c0" d="M79.5,-372C79.5,-372 125.5,-372 125.5,-372 131.5,-372 137.5,-378 137.5,-384 137.5,-384 137.5,-432 137.5,-432 137.5,-438 131.5,-444 125.5,-444 125.5,-444 79.5,-444 79.5,-444 73.5,-444 67.5,-438 67.5,-432 67.5,-432 67.5,-384 67.5,-384 67.5,-378 73.5,-372 79.5,-372"/>
<text text-anchor="middle" x="102.5" y="-431.2" font-family="Times,serif" font-size="11.00" fill="#c0c0c0">Plugins</text>
</g>
<g id="clust7" class="cluster">
<title>cluster_\BASE\Helper</title>
<path fill="none" stroke="#c0c0c0" d="M64.5,-70C64.5,-70 140.5,-70 140.5,-70 146.5,-70 152.5,-76 152.5,-82 152.5,-82 152.5,-130 152.5,-130 152.5,-136 146.5,-142 140.5,-142 140.5,-142 64.5,-142 64.5,-142 58.5,-142 52.5,-136 52.5,-130 52.5,-130 52.5,-82 52.5,-82 52.5,-76 58.5,-70 64.5,-70"/>
<text text-anchor="middle" x="102.5" y="-129.2" font-family="Times,serif" font-size="11.00" fill="#c0c0c0">Helper</text>
</g>
<!-- \\BASE\\MVC\\TemplateEngines\\Smarty\\Plugins\\Link -->
<g id="node1" class="node">
<title>\\BASE\\MVC\\TemplateEngines\\Smarty\\Plugins\\Link</title>
<polygon fill="none" stroke="#000000" points="129.5,-416 75.5,-416 75.5,-380 129.5,-380 129.5,-416"/>
<text text-anchor="middle" x="102.5" y="-395.2" font-family="Courier,monospace" font-size="11.00" fill="#000000">Link</text>
</g>
<!-- \\BASE\\MVC\\TemplateEngines\\ParentController -->
<g id="node2" class="node">
<title>\\BASE\\MVC\\TemplateEngines\\ParentController</title>
<polygon fill="none" stroke="#000000" points="165,-356 40,-356 40,-320 165,-320 165,-356"/>
<text text-anchor="middle" x="102.5" y="-335.2" font-family="Courier,monospace" font-size="11.00" fill="#000000">ParentController</text>
</g>
<!-- \\BASE\\MVC\\Uri -->
<g id="node3" class="node">
<title>\\BASE\\MVC\\Uri</title>
<polygon fill="none" stroke="#000000" points="129.5,-302 75.5,-302 75.5,-266 129.5,-266 129.5,-302"/>
<text text-anchor="middle" x="102.5" y="-281.2" font-family="Courier,monospace" font-size="11.00" fill="#000000">Uri</text>
</g>
<!-- \\BASE\\MVC\\Controller -->
<g id="node4" class="node">
<title>\\BASE\\MVC\\Controller</title>
<polygon fill="none" stroke="#000000" points="144.5,-248 60.5,-248 60.5,-212 144.5,-212 144.5,-248"/>
<text text-anchor="middle" x="102.5" y="-227.2" font-family="Courier,monospace" font-size="11.00" fill="#000000">Controller</text>
</g>
<!-- \\BASE\\MVC\\Local -->
<g id="node5" class="node">
<title>\\BASE\\MVC\\Local</title>
<polygon fill="none" stroke="#000000" points="129.5,-194 75.5,-194 75.5,-158 129.5,-158 129.5,-194"/>
<text text-anchor="middle" x="102.5" y="-173.2" font-family="Courier,monospace" font-size="11.00" fill="#000000">Local</text>
</g>
<!-- \\BASE\\Helper\\RegExp -->
<g id="node6" class="node">
<title>\\BASE\\Helper\\RegExp</title>
<polygon fill="none" stroke="#000000" points="144.5,-114 60.5,-114 60.5,-78 144.5,-78 144.5,-114"/>
<text text-anchor="start" x="68.5" y="-99.2" font-family="Courier,monospace" font-size="11.00" fill="#000000">«abstract»</text>
<text text-anchor="start" x="82" y="-87.2" font-family="Courier,monospace" font-size="11.00" fill="#000000">RegExp</text>
</g>
<!-- \\BASE\\MVC -->
<g id="node7" class="node">
<title>\\BASE\\MVC</title>
<polygon fill="none" stroke="#000000" points="129.5,-60 75.5,-60 75.5,-24 129.5,-24 129.5,-60"/>
<text text-anchor="middle" x="102.5" y="-39.2" font-family="Courier,monospace" font-size="11.00" fill="#000000">MVC</text>
</g>
</g>
</svg>
