<?xml version="1.0" encoding="UTF-8" standalone="no"?>
<!DOCTYPE svg PUBLIC "-//W3C//DTD SVG 1.1//EN"
 "http://www.w3.org/Graphics/SVG/1.1/DTD/svg11.dtd">
<!-- Generated by graphviz version 2.40.1 (20161225.0304)
 -->
<!-- Title: G Pages: 1 -->
<svg width="418pt" height="708pt"
 viewBox="0.00 0.00 418.00 708.00" xmlns="http://www.w3.org/2000/svg" xmlns:xlink="http://www.w3.org/1999/xlink">
<g id="graph0" class="graph" transform="scale(1 1) rotate(0) translate(4 704)">
<title>G</title>
<polygon fill="#ffffff" stroke="transparent" points="-4,4 -4,-704 414,-704 414,4 -4,4"/>
<g id="clust1" class="cluster">
<title>cluster_Global</title>
<path fill="none" stroke="#c0c0c0" d="M20,-8C20,-8 390,-8 390,-8 396,-8 402,-14 402,-20 402,-20 402,-680 402,-680 402,-686 396,-692 390,-692 390,-692 20,-692 20,-692 14,-692 8,-686 8,-680 8,-680 8,-20 8,-20 8,-14 14,-8 20,-8"/>
<text text-anchor="middle" x="205" y="-679.2" font-family="Times,serif" font-size="11.00" fill="#c0c0c0">Global</text>
</g>
<g id="clust2" class="cluster">
<title>cluster_\BASE</title>
<path fill="none" stroke="#c0c0c0" d="M28,-16C28,-16 382,-16 382,-16 388,-16 394,-22 394,-28 394,-28 394,-652 394,-652 394,-658 388,-664 382,-664 382,-664 28,-664 28,-664 22,-664 16,-658 16,-652 16,-652 16,-28 16,-28 16,-22 22,-16 28,-16"/>
<text text-anchor="middle" x="205" y="-651.2" font-family="Times,serif" font-size="11.00" fill="#c0c0c0">BASE</text>
</g>
<g id="clust3" class="cluster">
<title>cluster_\BASE\MVC</title>
<path fill="none" stroke="#c0c0c0" d="M36,-204C36,-204 374,-204 374,-204 380,-204 386,-210 386,-216 386,-216 386,-624 386,-624 386,-630 380,-636 374,-636 374,-636 36,-636 36,-636 30,-636 24,-630 24,-624 24,-624 24,-216 24,-216 24,-210 30,-204 36,-204"/>
<text text-anchor="middle" x="205" y="-623.2" font-family="Times,serif" font-size="11.00" fill="#c0c0c0">MVC</text>
</g>
<g id="clust4" class="cluster">
<title>cluster_\BASE\MVC\TemplateEngines</title>
<path fill="none" stroke="#c0c0c0" d="M44,-418C44,-418 366,-418 366,-418 372,-418 378,-424 378,-430 378,-430 378,-596 378,-596 378,-602 372,-608 366,-608 366,-608 44,-608 44,-608 38,-608 32,-602 32,-596 32,-596 32,-430 32,-430 32,-424 38,-418 44,-418"/>
<text text-anchor="middle" x="205" y="-595.2" font-family="Times,serif" font-size="11.00" fill="#c0c0c0">TemplateEngines</text>
</g>
<g id="clust5" class="cluster">
<title>cluster_\BASE\MVC\TemplateEngines\Smarty</title>
<path fill="none" stroke="#c0c0c0" d="M241,-426C241,-426 358,-426 358,-426 364,-426 370,-432 370,-438 370,-438 370,-568 370,-568 370,-574 364,-580 358,-580 358,-580 241,-580 241,-580 235,-580 229,-574 229,-568 229,-568 229,-438 229,-438 229,-432 235,-426 241,-426"/>
<text text-anchor="middle" x="299.5" y="-567.2" font-family="Times,serif" font-size="11.00" fill="#c0c0c0">Smarty</text>
</g>
<g id="clust6" class="cluster">
<title>cluster_\BASE\MVC\TemplateEngines\Smarty\Plugins</title>
<path fill="none" stroke="#c0c0c0" d="M276.5,-480C276.5,-480 322.5,-480 322.5,-480 328.5,-480 334.5,-486 334.5,-492 334.5,-492 334.5,-540 334.5,-540 334.5,-546 328.5,-552 322.5,-552 322.5,-552 276.5,-552 276.5,-552 270.5,-552 264.5,-546 264.5,-540 264.5,-540 264.5,-492 264.5,-492 264.5,-486 270.5,-480 276.5,-480"/>
<text text-anchor="middle" x="299.5" y="-539.2" font-family="Times,serif" font-size="11.00" fill="#c0c0c0">Plugins</text>
</g>
<g id="clust7" class="cluster">
<title>cluster_\BASE\Helper</title>
<path fill="none" stroke="#c0c0c0" d="M261.5,-124C261.5,-124 337.5,-124 337.5,-124 343.5,-124 349.5,-130 349.5,-136 349.5,-136 349.5,-184 349.5,-184 349.5,-190 343.5,-196 337.5,-196 337.5,-196 261.5,-196 261.5,-196 255.5,-196 249.5,-190 249.5,-184 249.5,-184 249.5,-136 249.5,-136 249.5,-130 255.5,-124 261.5,-124"/>
<text text-anchor="middle" x="299.5" y="-183.2" font-family="Times,serif" font-size="11.00" fill="#c0c0c0">Helper</text>
</g>
<!-- \\BASE\\MVC\\TemplateEngines\\Smarty\\Plugins\\Link -->
<g id="node1" class="node">
<title>\\BASE\\MVC\\TemplateEngines\\Smarty\\Plugins\\Link</title>
<polygon fill="none" stroke="#000000" points="326.5,-524 272.5,-524 272.5,-488 326.5,-488 326.5,-524"/>
<text text-anchor="middle" x="299.5" y="-503.2" font-family="Courier,monospace" font-size="11.00" fill="#000000">Link</text>
</g>
<!-- \\BASE\\MVC\\TemplateEngines\\Smarty\\ParentController -->
<g id="node2" class="node">
<title>\\BASE\\MVC\\TemplateEngines\\Smarty\\ParentController</title>
<polygon fill="none" stroke="#000000" points="362,-470 237,-470 237,-434 362,-434 362,-470"/>
<text text-anchor="middle" x="299.5" y="-449.2" font-family="Courier,monospace" font-size="11.00" fill="#000000">ParentController</text>
</g>
<!-- \\BASE\\MVC\\TemplateEngines\\ParentController -->
<g id="node3" class="node">
<title>\\BASE\\MVC\\TemplateEngines\\ParentController</title>
<polygon fill="none" stroke="#000000" points="165,-470 40,-470 40,-434 165,-434 165,-470"/>
<text text-anchor="middle" x="102.5" y="-449.2" font-family="Courier,monospace" font-size="11.00" fill="#000000">ParentController</text>
</g>
<!-- \\BASE\\MVC\\TemplateEngines\\Smarty\\ParentController&#45;&gt;\\BASE\\MVC\\TemplateEngines\\ParentController -->
<g id="edge1" class="edge">
<title>\\BASE\\MVC\\TemplateEngines\\Smarty\\ParentController&#45;&gt;\\BASE\\MVC\\TemplateEngines\\ParentController</title>
<path fill="none" stroke="#000000" stroke-dasharray="1,5" d="M236.8973,-452C217.3319,-452 195.5774,-452 175.3697,-452"/>
<polygon fill="none" stroke="#000000" points="175.2779,-448.5001 165.2778,-452 175.2778,-455.5001 175.2779,-448.5001"/>
</g>
<!-- \\BASE\\MVC\\Uri -->
<g id="node4" class="node">
<title>\\BASE\\MVC\\Uri</title>
<polygon fill="none" stroke="#000000" points="326.5,-410 272.5,-410 272.5,-374 326.5,-374 326.5,-410"/>
<text text-anchor="middle" x="299.5" y="-389.2" font-family="Courier,monospace" font-size="11.00" fill="#000000">Uri</text>
</g>
<!-- \\BASE\\MVC\\Routes -->
<g id="node5" class="node">
<title>\\BASE\\MVC\\Routes</title>
<polygon fill="none" stroke="#000000" points="328,-356 271,-356 271,-320 328,-320 328,-356"/>
<text text-anchor="middle" x="299.5" y="-335.2" font-family="Courier,monospace" font-size="11.00" fill="#000000">Routes</text>
</g>
<!-- \\BASE\\MVC\\Controller -->
<g id="node6" class="node">
<title>\\BASE\\MVC\\Controller</title>
<polygon fill="none" stroke="#000000" points="341.5,-302 257.5,-302 257.5,-266 341.5,-266 341.5,-302"/>
<text text-anchor="middle" x="299.5" y="-281.2" font-family="Courier,monospace" font-size="11.00" fill="#000000">Controller</text>
</g>
<!-- \\BASE\\MVC\\Local -->
<g id="node7" class="node">
<title>\\BASE\\MVC\\Local</title>
<polygon fill="none" stroke="#000000" points="326.5,-248 272.5,-248 272.5,-212 326.5,-212 326.5,-248"/>
<text text-anchor="middle" x="299.5" y="-227.2" font-family="Courier,monospace" font-size="11.00" fill="#000000">Local</text>
</g>
<!-- \\BASE\\Helper\\RegExp -->
<g id="node8" class="node">
<title>\\BASE\\Helper\\RegExp</title>
<polygon fill="none" stroke="#000000" points="341.5,-168 257.5,-168 257.5,-132 341.5,-132 341.5,-168"/>
<text text-anchor="start" x="265.5" y="-153.2" font-family="Courier,monospace" font-size="11.00" fill="#000000">«abstract»</text>
<text text-anchor="start" x="279" y="-141.2" font-family="Courier,monospace" font-size="11.00" fill="#000000">RegExp</text>
</g>
<!-- \\BASE\\Config -->
<g id="node9" class="node">
<title>\\BASE\\Config</title>
<polygon fill="none" stroke="#000000" points="328,-114 271,-114 271,-78 328,-78 328,-114"/>
<text text-anchor="middle" x="299.5" y="-93.2" font-family="Courier,monospace" font-size="11.00" fill="#000000">Config</text>
</g>
<!-- \\BASE\\MVC -->
<g id="node10" class="node">
<title>\\BASE\\MVC</title>
<polygon fill="none" stroke="#000000" points="326.5,-60 272.5,-60 272.5,-24 326.5,-24 326.5,-60"/>
<text text-anchor="middle" x="299.5" y="-39.2" font-family="Courier,monospace" font-size="11.00" fill="#000000">MVC</text>
</g>
</g>
</svg>
